# xmcd CD database file
# Copyright (C) 1995-1998 Ti Kan
#
# Track frame offsets:
#	150
#	31207
#	54357
#	82650
#	114180
#	148767
#	167080
#	197730
#	210780
#	231527
#	249930
#	293955
#	322642
#
# Disc length: 4506 seconds
#
# Revision: 1
# Processed by: cddbd v1.4PL0 Copyright (c) Steve Scherf et al.
# Submitted via: CDex 1.30Release
#
DISCID=a111980d
DTITLE=Blues Traveler - Live - Birmingham Alabama
DYEAR=1992
DGENRE=Blues
TTITLE0=Mulling It Over
TTITLE1=Bagheera
TTITLE2=Ivory Tusk
TTITLE3=Gina
TTITLE4=Trina Magna
TTITLE5=Star Spangled Banner
TTITLE6=Warmer Days
TTITLE7=What's For Breakfast
TTITLE8=Manhattan Bridge
TTITLE9=100 Years
TTITLE10=Sweet Pain
TTITLE11=But Anyway
TTITLE12=Optimistic Thought
EXTD=YEAR: 1992 ID3G:   0
EXTT0=
EXTT1=
EXTT2=
EXTT3=
EXTT4=
EXTT5=
EXTT6=
EXTT7=
EXTT8=
EXTT9=
EXTT10=
EXTT11=
EXTT12=
PLAYORDER=
